<svg width="80" height="94" viewBox="0 0 80 94" fill="none" xmlns="http://www.w3.org/2000/svg">
<path d="M51.828 46.4852V1.05216C51.828 0.894416 51.7924 0.738699 51.7241 0.596537C51.6557 0.454376 51.5562 0.32941 51.433 0.230889C51.3098 0.132369 51.166 0.0628154 51.0123 0.0273776C50.8586 -0.0080602 50.6989 -0.00847521 50.545 0.0261633L34.709 3.57016C34.4752 3.62255 34.2662 3.75321 34.1167 3.94051C33.9673 4.12781 33.8862 4.36053 33.887 4.60016V46.4852H17.944V9.54916C17.9439 9.39152 17.9084 9.23591 17.8401 9.09384C17.7718 8.95177 17.6724 8.82687 17.5493 8.72836C17.4263 8.62986 17.2826 8.56028 17.129 8.52476C16.9754 8.48924 16.8158 8.4887 16.662 8.52316L0.822003 12.0672C0.588668 12.1194 0.380103 12.2497 0.230682 12.4363C0.0812614 12.623 -0.000102283 12.855 9.65004e-08 13.0942V42.0812C9.65004e-08 43.2481 0.463571 44.3673 1.28873 45.1924C2.11389 46.0176 3.23305 46.4812 4.4 46.4812H16.945V92.1632C16.9451 92.3204 16.9804 92.4755 17.0484 92.6173C17.1163 92.759 17.2152 92.8838 17.3377 92.9823C17.4602 93.0808 17.6032 93.1506 17.7563 93.1866C17.9093 93.2226 18.0684 93.2238 18.222 93.1902L34.059 89.6462C34.2923 89.5939 34.5009 89.4637 34.6503 89.277C34.7997 89.0903 34.8811 88.8583 34.881 88.6192V46.4852H50.824V83.4202C50.8239 83.5779 50.8593 83.7336 50.9276 83.8758C50.9958 84.018 51.0952 84.143 51.2183 84.2416C51.3414 84.3403 51.4851 84.4099 51.6387 84.4455C51.7924 84.4811 51.9521 84.4816 52.106 84.4472L67.947 80.9002C68.1803 80.8479 68.3889 80.7177 68.5383 80.531C68.6877 80.3443 68.7691 80.1123 68.769 79.8732V50.8892C68.769 49.7222 68.3054 48.6031 67.4803 47.7779C66.6551 46.9527 65.536 46.4892 64.369 46.4892L51.828 46.4852Z" fill="url(#paint0_linear_151_3)"/>
<path d="M70.2649 6.7059H68.9069C68.7862 6.7059 68.6705 6.65796 68.5852 6.57263C68.4998 6.4873 68.4519 6.37157 68.4519 6.2509C68.4519 6.13022 68.4998 6.01449 68.5852 5.92916C68.6705 5.84384 68.7862 5.7959 68.9069 5.7959H72.6189C72.7396 5.7959 72.8553 5.84384 72.9406 5.92916C73.026 6.01449 73.0739 6.13022 73.0739 6.2509C73.0739 6.37157 73.026 6.4873 72.9406 6.57263C72.8553 6.65796 72.7396 6.7059 72.6189 6.7059H71.2539V10.9379C71.2539 11.0692 71.2017 11.1951 71.1089 11.2879C71.0161 11.3807 70.8902 11.4329 70.7589 11.4329C70.6276 11.4329 70.5017 11.3807 70.4089 11.2879C70.3161 11.1951 70.2639 11.0692 70.2639 10.9379L70.2649 6.7059Z" fill="#00BF54"/>
<path d="M74.068 6.25887C74.0676 6.19384 74.0801 6.12937 74.1048 6.0692C74.1294 6.00903 74.1658 5.95435 74.2117 5.90832C74.2577 5.86229 74.3123 5.82582 74.3724 5.80103C74.4325 5.77623 74.4969 5.7636 74.562 5.76387H74.662C74.7544 5.76293 74.8454 5.78684 74.9255 5.8331C75.0055 5.87937 75.0717 5.94629 75.117 6.02687L76.81 8.67887L78.51 6.01987C78.5537 5.94021 78.6186 5.87416 78.6975 5.829C78.7763 5.78383 78.8661 5.76129 78.957 5.76387H79.057C79.122 5.7636 79.1865 5.77623 79.2466 5.80103C79.3067 5.82582 79.3613 5.86229 79.4072 5.90832C79.4532 5.95435 79.4895 6.00903 79.5142 6.0692C79.5389 6.12937 79.5514 6.19384 79.551 6.25887V10.9389C79.5513 11.0035 79.5386 11.0675 79.5138 11.1272C79.489 11.1869 79.4525 11.241 79.4065 11.2863C79.3605 11.3317 79.3058 11.3674 79.2458 11.3914C79.1858 11.4153 79.1216 11.4271 79.057 11.4259C78.9282 11.4243 78.8051 11.3725 78.714 11.2816C78.6228 11.1906 78.5708 11.0676 78.569 10.9389V7.58487L77.204 9.63687C77.1662 9.71366 77.1077 9.77834 77.0351 9.82357C76.9624 9.8688 76.8786 9.89277 76.793 9.89277C76.7074 9.89277 76.6235 9.8688 76.5509 9.82357C76.4783 9.77834 76.4197 9.71366 76.382 9.63687L75.034 7.60087V10.9469C75.0343 11.0106 75.0218 11.0738 74.9972 11.1326C74.9727 11.1914 74.9366 11.2448 74.8911 11.2894C74.8456 11.3341 74.7917 11.3691 74.7324 11.3926C74.6731 11.416 74.6097 11.4273 74.546 11.4259C74.4827 11.4271 74.4199 11.4155 74.3612 11.3919C74.3026 11.3683 74.2493 11.333 74.2046 11.2883C74.1598 11.2436 74.1246 11.1903 74.1009 11.1316C74.0773 11.0729 74.0658 11.0101 74.067 10.9469L74.068 6.25887Z" fill="#00BF54"/>
<defs>
<linearGradient id="paint0_linear_151_3" x1="34.3845" y1="93.2145" x2="34.3845" y2="0.000488281" gradientUnits="userSpaceOnUse">
<stop offset="0.501" stop-color="#099A5D"/>
<stop offset="0.502" stop-color="#00BF54"/>
</linearGradient>
</defs>
</svg>
