<svg width="20" height="20" viewBox="0 0 20 20" fill="none" xmlns="http://www.w3.org/2000/svg">
<path d="M10 1.58301C8.33529 1.58301 6.70795 2.07666 5.32378 3.00153C3.93961 3.9264 2.86078 5.24096 2.22372 6.77896C1.58665 8.31697 1.41997 10.0093 1.74474 11.6421C2.06951 13.2748 2.87116 14.7746 4.04829 15.9517C5.22543 17.1289 6.7252 17.9305 8.35794 18.2553C9.99067 18.58 11.6831 18.4134 13.2211 17.7763C14.7591 17.1392 16.0736 16.0604 16.9985 14.6762C17.9234 13.2921 18.417 11.6647 18.417 10C18.4162 7.76792 17.5292 5.62749 15.9509 4.04917C14.3725 2.47085 12.2321 1.5838 10 1.58301ZM10.842 14.208H9.15801V9.15801H10.841L10.842 14.208ZM10.842 7.47501H9.15801V5.79101H10.841L10.842 7.47501Z" fill="#10284A"/>
</svg>
