<svg width="14" height="14" viewBox="0 0 14 14" fill="none" xmlns="http://www.w3.org/2000/svg">
<g clip-path="url(#clip0_3604_2008)">
<path d="M5.56089 1.81731L6.02807 0.664615C6.10686 0.469451 6.24548 0.301581 6.42577 0.182989C6.60607 0.0643992 6.81962 0.000617885 7.03848 0H7.92937C8.14823 0.000617885 8.3618 0.0643992 8.54208 0.182989C8.72238 0.301581 8.86099 0.469451 8.93978 0.664615L9.40696 1.81731L10.9931 2.68962L12.2752 2.50269C12.4887 2.475 12.706 2.50858 12.8995 2.59919C13.0928 2.68979 13.2537 2.83332 13.3616 3.01154L13.7962 3.73846C13.9076 3.91952 13.959 4.12859 13.9434 4.33809C13.9279 4.54759 13.8463 4.74767 13.7093 4.91192L12.9162 5.87769V7.62231L13.731 8.58808C13.868 8.75233 13.9496 8.95241 13.9652 9.16191C13.9807 9.37141 13.9293 9.58048 13.8179 9.76154L13.3834 10.4885C13.2755 10.6667 13.1146 10.8102 12.9212 10.9008C12.7277 10.9914 12.5104 11.025 12.2969 10.9973L11.0149 10.8104L9.42869 11.6827L8.96151 12.8354C8.88272 13.0305 8.74411 13.1984 8.56381 13.317C8.38353 13.4356 8.16996 13.4994 7.9511 13.5H7.03848C6.81962 13.4994 6.60607 13.4356 6.42577 13.317C6.24548 13.1984 6.10686 13.0305 6.02807 12.8354L5.56089 11.6827L3.97466 10.8104L2.69264 10.9973C2.47917 11.025 2.2619 10.9914 2.06844 10.9008C1.875 10.8102 1.71409 10.6667 1.60618 10.4885L1.17159 9.76154C1.06023 9.58048 1.00893 9.37141 1.02444 9.16191C1.03996 8.95241 1.12157 8.75233 1.25851 8.58808L2.05162 7.62231V5.87769L1.23678 4.91192C1.09984 4.74767 1.01823 4.54759 1.00271 4.33809C0.987198 4.12859 1.0385 3.91952 1.14986 3.73846L1.58445 3.01154C1.69236 2.83332 1.85327 2.68979 2.04671 2.59919C2.24017 2.50858 2.45744 2.475 2.67091 2.50269L3.95293 2.68962L5.56089 1.81731ZM5.31101 6.75C5.31101 7.16077 5.43845 7.56233 5.67721 7.90388C5.91598 8.24543 6.25534 8.51163 6.65238 8.66883C7.04944 8.82602 7.48634 8.86715 7.90784 8.78702C8.32934 8.70688 8.71653 8.50907 9.02042 8.2186C9.3243 7.92815 9.53125 7.55807 9.61509 7.15519C9.69894 6.75231 9.65591 6.33471 9.49144 5.95519C9.32699 5.57569 9.04847 5.25131 8.69114 5.0231C8.3338 4.79489 7.91369 4.67308 7.48393 4.67308C6.90764 4.67308 6.35494 4.89189 5.94744 5.2814C5.53994 5.67089 5.31101 6.19917 5.31101 6.75Z" stroke="#10284A" stroke-linecap="round" stroke-linejoin="round"/>
</g>
<defs>
<clipPath id="clip0_3604_2008">
<rect width="14" height="14" fill="white"/>
</clipPath>
</defs>
</svg>
