<svg width="18" height="18" viewBox="0 0 18 18" fill="none" xmlns="http://www.w3.org/2000/svg">
<path d="M9.00806 0.5C7.32692 0.5 5.68353 0.998516 4.28571 1.93251C2.8879 2.8665 1.79843 4.19402 1.15508 5.74719C0.51174 7.30036 0.343411 9.00943 0.671386 10.6583C0.99936 12.3071 1.80891 13.8217 2.99765 15.0104C4.1864 16.1992 5.70095 17.0087 7.34979 17.3367C8.99863 17.6646 10.7077 17.4963 12.2609 16.853C13.814 16.2096 15.1416 15.1202 16.0756 13.7223C17.0095 12.3245 17.5081 10.6811 17.5081 9C17.5081 6.74566 16.6125 4.58365 15.0185 2.98959C13.4244 1.39553 11.2624 0.5 9.00806 0.5ZM9.85806 14.95H8.15806V13.25H9.85806V14.95ZM11.6171 8.362L10.8521 9.144C10.5099 9.43933 10.2417 9.8107 10.0689 10.2283C9.89616 10.646 9.82359 11.0983 9.85706 11.549H8.15806V11.124C8.15991 10.2225 8.51748 9.35826 9.15306 8.719L10.2081 7.649C10.3678 7.49284 10.4943 7.30609 10.5803 7.09991C10.6662 6.89374 10.7096 6.67236 10.7081 6.449C10.7081 5.99813 10.529 5.56573 10.2101 5.24692C9.89133 4.92811 9.45893 4.749 9.00806 4.749C8.55719 4.749 8.12479 4.92811 7.80598 5.24692C7.48717 5.56573 7.30806 5.99813 7.30806 6.449H5.60806C5.60806 6.00251 5.696 5.56038 5.86687 5.14788C6.03774 4.73537 6.28818 4.36056 6.6039 4.04484C6.91962 3.72912 7.29443 3.47868 7.70694 3.30781C8.11944 3.13694 8.56157 3.049 9.00806 3.049C9.45455 3.049 9.89668 3.13694 10.3092 3.30781C10.7217 3.47868 11.0965 3.72912 11.4122 4.04484C11.7279 4.36056 11.9784 4.73537 12.1493 5.14788C12.3201 5.56038 12.4081 6.00251 12.4081 6.449C12.4087 6.80439 12.3391 7.15641 12.2034 7.48486C12.0676 7.8133 11.8684 8.11073 11.6171 8.362Z" fill="#10284A"/>
</svg>
