<svg width="20" height="20" viewBox="0 0 20 20" fill="none" xmlns="http://www.w3.org/2000/svg">
<path d="M10.804 2.62508C8.83873 2.61604 6.95031 3.38788 5.554 4.77088C4.15769 6.15388 3.36779 8.03481 3.358 10.0001H0.875L4.094 13.1881L4.152 13.3031L7.495 10.0031H5.012C5.0001 8.66115 5.45455 7.35672 6.29771 6.31269C7.14086 5.26865 8.32038 4.54979 9.63475 4.27893C10.9491 4.00807 12.3168 4.20203 13.504 4.82765C14.6912 5.45328 15.6244 6.47176 16.144 7.70906C16.6636 8.94636 16.7374 10.3257 16.3529 11.6114C15.9683 12.8971 15.1493 14.0094 14.0356 14.7582C12.922 15.507 11.5829 15.8459 10.2471 15.7169C8.91134 15.5879 7.6618 14.9991 6.712 14.0511L5.541 15.2121C6.58125 16.2443 7.90259 16.9471 9.33996 17.2328C10.7773 17.5184 12.267 17.3742 13.6229 16.8182C14.9788 16.2621 16.1408 15.3189 16.9637 14.1063C17.7866 12.8937 18.234 11.4655 18.25 10.0001C18.2402 8.03481 17.4503 6.15388 16.054 4.77088C14.6577 3.38788 12.7693 2.61604 10.804 2.62508ZM9.975 6.72508V10.8251L13.516 12.9061L14.116 11.9141L11.216 10.2141V6.72508H9.975Z" fill="#10284A"/>
</svg>
